<?xml version="1.0" encoding="UTF-8" standalone="no"?>
<svg
   xmlns:dc="http://purl.org/dc/elements/1.1/"
   xmlns:cc="http://creativecommons.org/ns#"
   xmlns:rdf="http://www.w3.org/1999/02/22-rdf-syntax-ns#"
   xmlns:svg="http://www.w3.org/2000/svg"
   xmlns="http://www.w3.org/2000/svg"
   width="1024"
   height="1024"
   viewBox="0 0 270.93333 270.93333"
   version="1.1"
   id="svg8">
  <defs
     id="defs2" />
  <metadata
     id="metadata5">
    <rdf:RDF>
      <cc:Work
         rdf:about="">
        <dc:format>image/svg+xml</dc:format>
        <dc:type
           rdf:resource="http://purl.org/dc/dcmitype/StillImage" />
        <dc:title></dc:title>
      </cc:Work>
    </rdf:RDF>
  </metadata>
  <g
     id="layer1"
     style="display:inline;opacity:1;mix-blend-mode:normal">
    <path
       style="display:inline;fill:#ffffff;stroke-width:2.25516"
       d="M 170.77837,898.56903 C 132.08719,895.66452 92.498966,894.82598 75.571525,889.59761 64.057877,886.04142 50.227295,873.6891 47.577588,868.56514 22.367544,819.81429 34.170215,239.70796 58.664855,179.65432 c 3.817488,-9.35935 12.308842,-13.48953 50.068915,-18.89832 163.24107,-23.38283 735.63621,-30.108 809.93018,-10.65541 11.77389,3.08279 34.24729,20.78951 42.10913,36.35046 13.36004,26.44346 16.57844,80.17599 25.50645,150.93693 28.06267,222.41741 27.11317,510.60979 -8.79334,553.28225 -9.5132,11.30584 -57.46151,6.03316 -64.59511,-7.7617 -9.29734,-17.97909 -8.33243,-40.14589 -10.49132,-233.69738 -2.15532,-193.23117 -2.1375,-290.80069 -6.25613,-327.43357 -9.51501,-84.63078 -15.39904,-91.82373 -61.92889,-91.82373 -24.57899,0 -31.14305,-5.29875 -40.49136,13.13529 -18.98172,37.43029 -16.4222,84.95795 -18.23706,371.38436 -1.4097,222.48062 -14.39051,265.4908 -29.11272,280.21301 -7.29803,7.29802 -51.45628,7.70704 -60.30545,0.74627 -15.3145,-12.04638 -7.96669,-49.8488 -10.38551,-300.34557 C 673.6714,386.80043 671.398,347.9707 664.32919,297.62114 c -6.34842,-45.21837 -9.77501,-61.62734 -25.35865,-72.38795 -11.73582,-8.10367 -22.73031,-3.41329 -46.10619,7.83006 -24.91699,11.98459 -18.66851,26.48221 -24.17041,44.29533 -9.89415,32.03352 -19.32339,38.7357 -21.90862,276.22549 -1.14091,104.80875 -5.86205,214.27363 -7.15406,231.01822 -3.02843,39.24939 -14.53046,83.05478 -19.39916,93.01844 -6.95091,14.22487 -37.25559,13.4719 -97.52751,19.94584 -29.91001,3.21271 -215.87367,3.70889 -251.92622,1.00246 z"
       id="path134"
       transform="scale(0.26458333)" />
  </g>
  <g
     id="layer2"
     style="display:inline">
    <path
       style="display:inline;fill:#000000;stroke-width:5.14288"
       d="m 8.0445723,239.63531 c -4.20221,-4.47358 -5.98135,-34.34812 -5.98135,-100.44176 0,-118.843712 -5.11928,-111.700331 79.1581707,-110.45087 34.594417,0.513422 68.593887,-0.67186 75.554487,-2.631487 6.96078,-1.959427 18.65258,-1.137149 25.98203,1.829065 9.10709,3.686208 18.07233,3.63246 28.3171,-0.160445 48.18803,-17.8833239 60.14886,7.096854 60.14886,125.619677 0,92.61168 0,92.61168 -19.40444,92.61168 -25.2183,0 -25.45567,-0.89448 -25.45567,-95.94851 0,-66.828075 -1.16425,-79.161429 -7.47665,-79.161429 -6.34379,0 -7.47677,13.265937 -7.47677,87.555069 0,87.55487 0,87.55487 -19.40443,87.55487 -25.22885,0 -25.45566,-0.85837 -25.45566,-96.39074 0,-113.158974 -11.84815,-110.079246 -13.84564,3.59896 -0.82702,47.06736 -3.58146,81.61182 -6.84078,85.7928 -7.35263,9.43132 -129.029415,9.98887 -137.8192577,0.63175 z M 135.64675,229.02272 c 4.11196,-4.37772 5.98135,-30.85344 5.98135,-84.7152 0,-72.028875 0.77805,-78.7904 9.64116,-83.840385 25.70002,-14.64255 30.23434,-0.6859 30.23434,93.053495 0,78.33214 0.43141,81.86973 9.96897,81.86973 9.54832,0 9.96898,-3.53759 9.96898,-83.84059 0,-83.539144 2.44134,-96.575847 18.08646,-96.575847 18.53282,0 21.78912,14.727585 21.78912,98.546707 0,78.33214 0.43141,81.86973 9.96897,81.86973 18.88108,0 13.64613,-177.765496 -5.63302,-191.277916 C 234.83166,36.527639 21.640403,41.705178 16.911843,49.667628 9.7097323,61.794811 10.689172,221.22533 18.013918,229.02272 c 8.202639,8.7324 109.430562,8.7324 117.633202,0 z"
       id="path26" />
  </g>
</svg>
